<?xml version="1.0" encoding="UTF-8"?>
<svg id="Calque_2" data-name="Calque 2" xmlns="http://www.w3.org/2000/svg" xmlns:xlink="http://www.w3.org/1999/xlink" viewBox="0 0 156.96 35.5">
  <defs>
    <style>
      .cls-1 {
        fill: #201b18;
        font-family: BodoniModa-Medium, 'Bodoni Moda';
        font-size: 21px;
        font-variation-settings: 'wght' 500, 'opsz' 11;
        font-weight: 500;
      }

      .cls-2 {
        fill: url(#Dégradé_sans_nom_10);
      }
    </style>
    <linearGradient id="Dégradé_sans_nom_10" data-name="Dégradé sans nom 10" x1="0" y1="15.75" x2="30.13" y2="15.75" gradientUnits="userSpaceOnUse">
      <stop offset="0" stop-color="#a17c45"/>
      <stop offset="1" stop-color="#d8bf92"/>
    </linearGradient>
  </defs>
  <g id="Calque_1-2" data-name="Calque 1">
    <path class="cls-2" d="M15.73,29.28c-3.67-3.23-5.15-9.02-7.92-8.46-.48.59-1.17,1.68-1.53,2.32l-.05,5.62c0,.37.42.94.82,1.53l-3.5-.04c.34-.56.74-1.14.74-1.54v-13.4c.66-.56,1.27-.98,1.91-1.31l.08,7.86c1.88-3.23,4-5.74,6.78-7.99l3.31-2.68c2.44-1.98,3.26-5.38,1.7-8.15-.58-1.03-1.81-1.88-3.01-1.56-.96.25-1.69,1.49-1.76,2.51-.29,3.77-2.31,6.82-5.83,8.37-1.96.87-4.03,1.76-5.45,3.39-1.79,2.07-1.51,4.8.53,6.71-2.16-.48-2.83-2.87-2.45-4.79.68-3.47,4.3-4.92,7.29-6.29,2.54-1.17,4.23-3.35,4.69-6.16.24-1.5.73-2.82,1.67-4.16C5.45,2.57,5.48,10.73,5.17,11.32c-.08.16-.41.15-.79.18.12-2.23.55-4.49,1.78-6.48C9.05.36,14.86-1.2,19.81.95c5.48,2.37,7.2,8.15,6.6,13.36-.03.24-.53.39-.82.46-.02-1.92.05-3.71-.3-5.55-.79-4.08-3.85-7.25-7.83-8,2.95,2.46,3.2,6.96.48,9.83-1,1.05-2.06,1.85-3.31,2.88,1.53-.07,2.6.66,3.16,2l4.43,10.45,3.69-9.42c.64-1.64,2.46-2.96,4.21-2.37-1.89.61-3.11,1.78-3.84,3.59l-4.65,11.51-6.12-14.1c-.16-.36-.79-.87-1.12-.99-1.46-.55-4.87,3.89-5.91,5.16,2.7.08,4.56,2.86,5.84,4.95,1.76,2.88,4.37,6.35,8.22,5.85,4.98-.64,1.49-7.53,3.84-9.07l-.05,5.93c-.02,1.99-1.45,3.5-3.3,3.89-2.68.58-5.24-.21-7.31-2.03Z"/>
    <text class="cls-1" transform="translate(34.54 28.91)"><tspan x="0" y="0">KËR VENUS</tspan></text>
  </g>
</svg>
